<svg xmlns="http://www.w3.org/2000/svg" viewBox="0 0 24 24" role="img" aria-label="Spotify">
  <circle cx="12" cy="12" r="10" fill="#1ed760"/>
  <path fill="#05050f" d="M16.8 15.6c-2.9-.7-6.1-.6-8.9.2-.4.1-.8-.2-.9-.6-.1-.4.2-.8.6-.9 3.1-.9 6.6-1 9.8-.2.4.1.7.5.6.9-.1.4-.4.7-.6.6zm-.3-2.8c-3.3-.8-6.9-.7-10.1.2-.5.1-1-.3-1.1-.8-.1-.5.3-1 0.8-1.1 3.6-.9 7.6-1 11.2-.2.5.1.9.6.8 1.1-.1.5-.6.9-1.1.8zm-.4-2.9c-3.8-.9-7.9-.8-11.6.3-.5.1-1.1-.2-1.2-.8-.1-.5.2-1.1.8-1.2 4.1-1.1 8.6-1.2 12.7-.3.6.1 1 .7.9 1.3-.1.6-.7 1-1.3.9z"/>
</svg>
